<svg aria-roledescription="architecture" role="graphics-document document" viewBox="-537.8886413574219 -166.29640197753906 1147.77734375 463.5927734375" style="max-width: 1147.78px; background-color: white;" xmlns:xlink="http://www.w3.org/1999/xlink" xmlns="http://www.w3.org/2000/svg" width="100%" id="my-svg"><style>#my-svg{font-family:"trebuchet ms",verdana,arial,sans-serif;font-size:16px;fill:#333;}@keyframes edge-animation-frame{from{stroke-dashoffset:0;}}@keyframes dash{to{stroke-dashoffset:0;}}#my-svg .edge-animation-slow{stroke-dasharray:9,5!important;stroke-dashoffset:900;animation:dash 50s linear infinite;stroke-linecap:round;}#my-svg .edge-animation-fast{stroke-dasharray:9,5!important;stroke-dashoffset:900;animation:dash 20s linear infinite;stroke-linecap:round;}#my-svg .error-icon{fill:#552222;}#my-svg .error-text{fill:#552222;stroke:#552222;}#my-svg .edge-thickness-normal{stroke-width:1px;}#my-svg .edge-thickness-thick{stroke-width:3.5px;}#my-svg .edge-pattern-solid{stroke-dasharray:0;}#my-svg .edge-thickness-invisible{stroke-width:0;fill:none;}#my-svg .edge-pattern-dashed{stroke-dasharray:3;}#my-svg .edge-pattern-dotted{stroke-dasharray:2;}#my-svg .marker{fill:#333333;stroke:#333333;}#my-svg .marker.cross{stroke:#333333;}#my-svg svg{font-family:"trebuchet ms",verdana,arial,sans-serif;font-size:16px;}#my-svg p{margin:0;}#my-svg .edge{stroke-width:3;stroke:#333333;fill:none;}#my-svg .arrow{fill:#333333;}#my-svg .node-bkg{fill:none;stroke:hsl(240, 60%, 86.2745098039%);stroke-width:2px;stroke-dasharray:8;}#my-svg .node-icon-text{display:flex;align-items:center;}#my-svg .node-icon-text&gt;div{color:#fff;margin:1px;height:fit-content;text-align:center;overflow:hidden;display:-webkit-box;-webkit-box-orient:vertical;}#my-svg :root{--mermaid-font-family:"trebuchet ms",verdana,arial,sans-serif;}</style><g/><g class="architecture-edges"><g><path class="edge" d="M 447.38862996499046,157.79640467808946 L 387.0587070779333,157.79640467808946 L326.7287841908762,157.79640467808946"/></g><g><path class="edge" d="M 75.53151624828493,157.79640467808946 L 161.13015021958057,157.79640467808946 L246.72878419087618,157.79640467808946"/></g><g><path class="edge" d="M -125.09625675256333,157.79640467808946 L -64.7823702521392,157.79640467808946 L-4.46848375171507,157.79640467808946"/></g><g><path class="edge" d="M -371.38862996499046,157.79640467808946 L -288.2424433587769,157.79640467808946 L-205.09625675256333,157.79640467808946"/></g><g><path class="edge" d="M -411.38862996499046,-3.7964046780894734 L -411.38862996499046,57 L-411.38862996499046,117.79640467808947"/></g></g><g class="architecture-services"><g transform="translate(-451.38862996499046,117.79640467808947)" class="architecture-service"><g transform="translate(40, 80)" text-anchor="middle" dominant-baseline="middle" alignment-baseline="middle" dy="1em"><g><rect style="stroke: none" class="background"/><text style="" y="-10.1"><tspan dy="1.1em" y="-0.1em" x="0" class="text-outer-tspan"><tspan font-weight="normal" class="text-inner-tspan" font-style="normal">cloud</tspan><tspan font-weight="normal" class="text-inner-tspan" font-style="normal"> run</tspan></tspan></text></g></g><g><g><svg viewBox="0 0 256 231" height="80" width="80" xmlns="http://www.w3.org/2000/svg"><path d="M75.39 0a23.1 23.1 0 0 0-19.72 11.76L3.054 102.995a22.96 22.96 0 0 0 0 22.879l52.598 91.997a23.54 23.54 0 0 0 19.719 12.18h105.216a23.46 23.46 0 0 0 19.74-12.12l52.598-91.477a23.44 23.44 0 0 0 3.074-11.61c0-4.004-1.025-8.01-3.074-11.61L200.326 11.76A23.12 23.12 0 0 0 180.606 0z" fill="#4285F4"/><path d="m236.495 155.027l-36.17 62.905a23.46 23.46 0 0 1-19.739 12.12H140.51l-58.472-58.995l17.238-55.583l-17.238-56.22l17.705 11.893l23.806 24.019l-11.12-35.912l83.375 56.008z" fill-opacity=".07"/><path d="m82.038 59.254l17.705 11.893l13.88 44.618l-13.633 43.278l-17.952 12.014l17.343-55.796zm45.347 19.836l8.593 27.792h32.989zm68.42 36.172l-83.376 55.795l17.343-55.795l-17.343-56.008z" fill="#FFF"/></svg></g></g></g><g transform="translate(-451.38862996499046,-83.79640467808947)" class="architecture-service"><g transform="translate(40, 80)" text-anchor="middle" dominant-baseline="middle" alignment-baseline="middle" dy="1em"><g><rect style="stroke: none" class="background"/><text style="" y="-10.1"><tspan dy="1.1em" y="-0.1em" x="0" class="text-outer-tspan"><tspan font-weight="normal" class="text-inner-tspan" font-style="normal">a2a</tspan><tspan font-weight="normal" class="text-inner-tspan" font-style="normal"> server</tspan></tspan></text></g></g><g><g><svg viewBox="0 0 256 255" height="80" width="80" xmlns="http://www.w3.org/2000/svg"><defs><linearGradient y2="78.201%" y1="12.039%" x2="79.639%" x1="12.959%" id="IconifyId19912780a02ef9b990"><stop stop-color="#387EB8" offset="0%"/><stop stop-color="#366994" offset="100%"/></linearGradient><linearGradient y2="88.429%" y1="20.579%" x2="90.742%" x1="19.128%" id="IconifyId19912780a02ef9b991"><stop stop-color="#FFE052" offset="0%"/><stop stop-color="#FFC331" offset="100%"/></linearGradient></defs><path d="M126.916.072c-64.832 0-60.784 28.115-60.784 28.115l.072 29.128h61.868v8.745H41.631S.145 61.355.145 126.77c0 65.417 36.21 63.097 36.21 63.097h21.61v-30.356s-1.165-36.21 35.632-36.21h61.362s34.475.557 34.475-33.319V33.97S194.67.072 126.916.072M92.802 19.66a11.12 11.12 0 0 1 11.13 11.13a11.12 11.12 0 0 1-11.13 11.13a11.12 11.12 0 0 1-11.13-11.13a11.12 11.12 0 0 1 11.13-11.13" fill="url(#IconifyId19912780a02ef9b990)"/><path d="M128.757 254.126c64.832 0 60.784-28.115 60.784-28.115l-.072-29.127H127.6v-8.745h86.441s41.486 4.705 41.486-60.712c0-65.416-36.21-63.096-36.21-63.096h-21.61v30.355s1.165 36.21-35.632 36.21h-61.362s-34.475-.557-34.475 33.32v56.013s-5.235 33.897 62.518 33.897m34.114-19.586a11.12 11.12 0 0 1-11.13-11.13a11.12 11.12 0 0 1 11.13-11.131a11.12 11.12 0 0 1 11.13 11.13a11.12 11.12 0 0 1-11.13 11.13" fill="url(#IconifyId19912780a02ef9b991)"/></svg></g></g></g><g transform="translate(-4.468483751715063,117.79640467808947)" class="architecture-service"><g transform="translate(40, 80)" text-anchor="middle" dominant-baseline="middle" alignment-baseline="middle" dy="1em"><g><rect style="stroke: none" class="background"/><text style="" y="-10.1"><tspan dy="1.1em" y="-0.1em" x="0" class="text-outer-tspan"><tspan font-weight="normal" class="text-inner-tspan" font-style="normal">web</tspan><tspan font-weight="normal" class="text-inner-tspan" font-style="normal"> site</tspan></tspan></text></g></g><g><g><svg viewBox="0 0 256 323" height="80" width="80" xmlns="http://www.w3.org/2000/svg"><defs><linearGradient y2="41.115%" y1="91.269%" x2="116.842%" x1="0%" id="IconifyId19912780a02ef9b992"><stop stop-color="#D83333" offset="0%"/><stop stop-color="#F041FF" offset="100%"/></linearGradient></defs><path d="M83.261 275.039c-14.588-13.336-18.847-41.355-12.769-61.653c10.539 12.796 25.14 16.852 40.265 19.138c23.35 3.533 46.28 2.212 67.97-8.46c2.482-1.22 4.775-2.848 7.486-4.492c2.035 5.903 2.565 11.864 1.854 17.932c-1.728 14.776-9.082 26.191-20.777 34.842c-4.677 3.461-9.626 6.555-14.456 9.82c-14.839 10.026-18.853 21.786-13.277 38.894c.132.417.25.833.55 1.85c-7.576-3.39-13.11-8.328-17.327-14.818c-4.453-6.852-6.572-14.431-6.684-22.63c-.056-3.99-.056-8.018-.592-11.95c-1.31-9.591-5.813-13.886-14.296-14.134c-8.705-.252-15.591 5.127-17.417 13.604c-.14.649-.342 1.291-.544 2.047z" fill="#FFF"/><path d="M83.261 275.039c-14.588-13.336-18.847-41.355-12.769-61.653c10.539 12.796 25.14 16.852 40.265 19.138c23.35 3.533 46.28 2.212 67.97-8.46c2.482-1.22 4.775-2.848 7.486-4.492c2.035 5.903 2.565 11.864 1.854 17.932c-1.728 14.776-9.082 26.191-20.777 34.842c-4.677 3.461-9.626 6.555-14.456 9.82c-14.839 10.026-18.853 21.786-13.277 38.894c.132.417.25.833.55 1.85c-7.576-3.39-13.11-8.328-17.327-14.818c-4.453-6.852-6.572-14.431-6.684-22.63c-.056-3.99-.056-8.018-.592-11.95c-1.31-9.591-5.813-13.886-14.296-14.134c-8.705-.252-15.591 5.127-17.417 13.604c-.14.649-.342 1.291-.544 2.047z" fill="url(#IconifyId19912780a02ef9b992)"/><path d="M0 210.001s43.197-21.041 86.515-21.041l32.66-101.078c1.224-4.889 4.794-8.21 8.824-8.21s7.601 3.321 8.824 8.21l32.66 101.078C220.787 188.96 256 210 256 210S182.624 10.117 182.481 9.716C180.375 3.806 176.821 0 172.027 0H83.98c-4.793 0-8.204 3.806-10.454 9.716C73.367 10.109 0 210 0 210" fill="#17191E"/></svg></g></g></g><g transform="translate(-205.09625675256333,117.79640467808947)" class="architecture-service"><g transform="translate(40, 80)" text-anchor="middle" dominant-baseline="middle" alignment-baseline="middle" dy="1em"><g><rect style="stroke: none" class="background"/><text style="" y="-10.1"><tspan dy="1.1em" y="-0.1em" x="0" class="text-outer-tspan"><tspan font-weight="normal" class="text-inner-tspan" font-style="normal">a2a</tspan><tspan font-weight="normal" class="text-inner-tspan" font-style="normal"> client</tspan><tspan font-weight="normal" class="text-inner-tspan" font-style="normal"> with</tspan></tspan><tspan dy="1.1em" y="1em" x="0" class="text-outer-tspan"><tspan font-weight="normal" class="text-inner-tspan" font-style="normal">astro</tspan><tspan font-weight="normal" class="text-inner-tspan" font-style="normal"> api</tspan></tspan></text></g></g><g><g><svg viewBox="0 0 24 24" height="80" width="80" xmlns="http://www.w3.org/2000/svg"><path d="M7 7H5a2 2 0 0 0-2 2v8h2v-4h2v4h2V9a2 2 0 0 0-2-2m0 4H5V9h2m7-2h-4v10h2v-4h2a2 2 0 0 0 2-2V9a2 2 0 0 0-2-2m0 4h-2V9h2m6 0v6h1v2h-4v-2h1V9h-1V7h4v2Z" fill="currentColor"/></svg></g></g></g><g transform="translate(447.38862996499046,117.79640467808947)" class="architecture-service"><g transform="translate(40, 80)" text-anchor="middle" dominant-baseline="middle" alignment-baseline="middle" dy="1em"><g><rect style="stroke: none" class="background"/><text style="" y="-10.1"><tspan dy="1.1em" y="-0.1em" x="0" class="text-outer-tspan"><tspan font-weight="normal" class="text-inner-tspan" font-style="normal">user</tspan></tspan></text></g></g><g><g><svg viewBox="0 0 24 24" height="80" width="80" xmlns="http://www.w3.org/2000/svg"><path d="M12 4a4 4 0 0 1 4 4a4 4 0 0 1-4 4a4 4 0 0 1-4-4a4 4 0 0 1 4-4m0 10c4.42 0 8 1.79 8 4v2H4v-2c0-2.21 3.58-4 8-4" fill="currentColor"/></svg></g></g></g><g transform="translate(246.72878419087618,117.79640467808947)" class="architecture-service"><g transform="translate(40, 80)" text-anchor="middle" dominant-baseline="middle" alignment-baseline="middle" dy="1em"><g><rect style="stroke: none" class="background"/><text style="" y="-10.1"><tspan dy="1.1em" y="-0.1em" x="0" class="text-outer-tspan"><tspan font-weight="normal" class="text-inner-tspan" font-style="normal">pc</tspan></tspan></text></g></g><g><g><svg viewBox="0 0 24 24" height="80" width="80" xmlns="http://www.w3.org/2000/svg"><path d="M4 6h16v10H4m16 2a2 2 0 0 0 2-2V6a2 2 0 0 0-2-2H4c-1.11 0-2 .89-2 2v10a2 2 0 0 0 2 2H0v2h24v-2z" fill="currentColor"/></svg></g></g></g></g><g class="architecture-groups"><rect class="node-bkg" height="383.5928093561789" width="173.00000000000006" y="-126.29640467808946" x="-497.8886299649905"/><g><g transform="translate(-496.8886299649905, -125.29640467808946)"><g><svg viewBox="0 0 256 206" height="30" width="30" xmlns="http://www.w3.org/2000/svg"><path d="m170.252 56.819l22.253-22.253l1.483-9.37C153.437-11.677 88.976-7.496 52.42 33.92C42.267 45.423 34.734 59.764 30.717 74.573l7.97-1.123l44.505-7.34l3.436-3.513c19.797-21.742 53.27-24.667 76.128-6.168z" fill="#EA4335"/><path d="M224.205 73.918a100.25 100.25 0 0 0-30.217-48.722l-31.232 31.232a55.52 55.52 0 0 1 20.379 44.037v5.544c15.35 0 27.797 12.445 27.797 27.796c0 15.352-12.446 27.485-27.797 27.485h-55.671l-5.466 5.934v33.34l5.466 5.231h55.67c39.93.311 72.553-31.494 72.864-71.424a72.3 72.3 0 0 0-31.793-60.453" fill="#4285F4"/><path d="M71.87 205.796h55.593V161.29H71.87a27.3 27.3 0 0 1-11.399-2.498l-7.887 2.42l-22.409 22.253l-1.952 7.574c12.567 9.489 27.9 14.825 43.647 14.757" fill="#34A853"/><path d="M71.87 61.426C31.94 61.663-.237 94.227.001 134.158a72.3 72.3 0 0 0 28.222 56.88l32.248-32.246c-13.99-6.322-20.208-22.786-13.887-36.776s22.786-20.208 36.775-13.888a27.8 27.8 0 0 1 13.887 13.888l32.248-32.248A72.22 72.22 0 0 0 71.87 61.427" fill="#FBBC05"/></svg></g></g><g transform="translate(-463.8886299649905, -119.29640467808946)" text-anchor="start" dominant-baseline="start" alignment-baseline="middle" dy="1em"><g><rect style="stroke: none" class="background"/><text style="" y="-10.1"><tspan dy="1.1em" y="-0.1em" x="0" class="text-outer-tspan"><tspan font-weight="normal" class="text-inner-tspan" font-style="normal">gcp</tspan></tspan></text></g></g></g><rect class="node-bkg" height="182" width="423.1277730008483" y="75.29640467808946" x="-305.09625675256336"/><g><g transform="translate(-304.09625675256336, 76.29640467808946)"><g><svg viewBox="0 0 256 117" height="30" width="30" xmlns="http://www.w3.org/2000/svg"><path d="M205.52 50.813c-.858 0-1.705.03-2.551.058q-.207.012-.398.094a1.42 1.42 0 0 0-.92.994l-3.628 12.672c-1.565 5.449-.983 10.48 1.646 14.174c2.41 3.416 6.42 5.421 11.289 5.655l19.679 1.194c.585.03 1.092.312 1.4.776a1.92 1.92 0 0 1 .2 1.692a2.5 2.5 0 0 1-2.134 1.662l-20.448 1.193c-11.11.515-23.062 9.58-27.255 20.633l-1.474 3.9a1.092 1.092 0 0 0 .967 1.49h70.425a1.87 1.87 0 0 0 1.81-1.365A51.2 51.2 0 0 0 256 101.828c0-28.16-22.582-50.984-50.449-50.984" fill="#FBAD41"/><path d="m174.782 115.362l1.303-4.583c1.568-5.449.987-10.48-1.639-14.173c-2.418-3.417-6.424-5.422-11.296-5.656l-92.312-1.193a1.82 1.82 0 0 1-1.459-.776a1.92 1.92 0 0 1-.203-1.693a2.5 2.5 0 0 1 2.154-1.662l93.173-1.193c11.063-.511 23.015-9.58 27.208-20.633l5.313-14.04c.214-.596.27-1.238.156-1.86C191.126 20.51 166.91 0 137.96 0C111.269 0 88.626 17.403 80.5 41.596a27 27 0 0 0-19.156-5.359C48.549 37.524 38.25 47.946 36.979 60.88a27.9 27.9 0 0 0 .702 9.642C16.773 71.145 0 88.454 0 109.726c0 1.923.137 3.818.413 5.667c.115.897.879 1.57 1.783 1.568h170.48a2.22 2.22 0 0 0 2.106-1.63" fill="#F6821F"/></svg></g></g><g transform="translate(-271.09625675256336, 82.29640467808946)" text-anchor="start" dominant-baseline="start" alignment-baseline="middle" dy="1em"><g><rect style="stroke: none" class="background"/><text style="" y="-10.1"><tspan dy="1.1em" y="-0.1em" x="0" class="text-outer-tspan"><tspan font-weight="normal" class="text-inner-tspan" font-style="normal">cloudflare</tspan></tspan></text></g></g></g><rect class="node-bkg" height="182" width="365.65984577411433" y="75.29640467808946" x="204.22878419087618"/><g><g transform="translate(205.22878419087618, 76.29640467808946)"><g><svg viewBox="0 0 24 24" height="30" width="30" xmlns="http://www.w3.org/2000/svg"><path d="M16.36 14c.08-.66.14-1.32.14-2s-.06-1.34-.14-2h3.38c.16.64.26 1.31.26 2s-.1 1.36-.26 2m-5.15 5.56c.6-1.11 1.06-2.31 1.38-3.56h2.95a8.03 8.03 0 0 1-4.33 3.56M14.34 14H9.66c-.1-.66-.16-1.32-.16-2s.06-1.35.16-2h4.68c.09.65.16 1.32.16 2s-.07 1.34-.16 2M12 19.96c-.83-1.2-1.5-2.53-1.91-3.96h3.82c-.41 1.43-1.08 2.76-1.91 3.96M8 8H5.08A7.92 7.92 0 0 1 9.4 4.44C8.8 5.55 8.35 6.75 8 8m-2.92 8H8c.35 1.25.8 2.45 1.4 3.56A8 8 0 0 1 5.08 16m-.82-2C4.1 13.36 4 12.69 4 12s.1-1.36.26-2h3.38c-.08.66-.14 1.32-.14 2s.06 1.34.14 2M12 4.03c.83 1.2 1.5 2.54 1.91 3.97h-3.82c.41-1.43 1.08-2.77 1.91-3.97M18.92 8h-2.95a15.7 15.7 0 0 0-1.38-3.56c1.84.63 3.37 1.9 4.33 3.56M12 2C6.47 2 2 6.5 2 12a10 10 0 0 0 10 10a10 10 0 0 0 10-10A10 10 0 0 0 12 2" fill="currentColor"/></svg></g></g><g transform="translate(238.22878419087618, 82.29640467808946)" text-anchor="start" dominant-baseline="start" alignment-baseline="middle" dy="1em"><g><rect style="stroke: none" class="background"/><text style="" y="-10.1"><tspan dy="1.1em" y="-0.1em" x="0" class="text-outer-tspan"><tspan font-weight="normal" class="text-inner-tspan" font-style="normal">web</tspan></tspan></text></g></g></g></g></svg>