<svg aria-roledescription="architecture" role="graphics-document document" viewBox="-585.4195556640625 -335.2287902832031 1235.839111328125 801.4575805664062" style="max-width: 1235.84px; background-color: white;" xmlns:xlink="http://www.w3.org/1999/xlink" xmlns="http://www.w3.org/2000/svg" width="100%" id="my-svg"><style>#my-svg{font-family:"trebuchet ms",verdana,arial,sans-serif;font-size:16px;fill:#333;}#my-svg .error-icon{fill:#552222;}#my-svg .error-text{fill:#552222;stroke:#552222;}#my-svg .edge-thickness-normal{stroke-width:1px;}#my-svg .edge-thickness-thick{stroke-width:3.5px;}#my-svg .edge-pattern-solid{stroke-dasharray:0;}#my-svg .edge-thickness-invisible{stroke-width:0;fill:none;}#my-svg .edge-pattern-dashed{stroke-dasharray:3;}#my-svg .edge-pattern-dotted{stroke-dasharray:2;}#my-svg .marker{fill:#333333;stroke:#333333;}#my-svg .marker.cross{stroke:#333333;}#my-svg svg{font-family:"trebuchet ms",verdana,arial,sans-serif;font-size:16px;}#my-svg p{margin:0;}#my-svg .edge{stroke-width:3;stroke:#333333;fill:none;}#my-svg .arrow{fill:#333333;}#my-svg .node-bkg{fill:none;stroke:hsl(240, 60%, 86.2745098039%);stroke-width:2px;stroke-dasharray:8;}#my-svg .node-icon-text{display:flex;align-items:center;}#my-svg .node-icon-text&gt;div{color:#fff;margin:1px;height:fit-content;text-align:center;overflow:hidden;display:-webkit-box;-webkit-box-orient:vertical;}#my-svg :root{--mermaid-font-family:"trebuchet ms",verdana,arial,sans-serif;}</style><g/><g class="architecture-edges"><g><path class="edge" d="M -128.6877160894283,-8.825964433910045 L -204.60734566211468,-8.825964433910045 L-280.52697523480106,-8.825964433910045"/></g><g><path class="edge" d="M 108.88230369865303,-8.825964433910045 L 30.097293804612363,-8.825964433910045 L-48.68771608942831,-8.825964433910045"/></g><g><path class="edge" d="M 108.88230369865303,-212.7287900586997 L 30.097293804612363,-212.7287900586997 L-48.68771608942831,-212.7287900586997"/></g><g><path class="edge" d="M 148.88230369865303,-172.7287900586997 L 148.88230369865303,-110.77737724630487 L148.88230369865303,-48.82596443391003"/></g><g><path class="edge" d="M 342.8392725386605,-8.825964433910045 L 265.8607881186568,-8.825964433910045 L188.88230369865303,-8.825964433910045"/></g></g><g class="architecture-services"><g transform="translate(-128.6877160894283,-252.7287900586997)" class="architecture-service"><g transform="translate(40, 80)" text-anchor="middle" dominant-baseline="middle" alignment-baseline="middle" dy="1em"><g><rect style="stroke: none" class="background"/><text style="" y="-10.1"><tspan dy="1.1em" y="-0.1em" x="0" class="text-outer-tspan"><tspan font-weight="normal" class="text-inner-tspan" font-style="normal">prefect</tspan></tspan></text></g></g><g><g><svg viewBox="0 0 24 24" height="80" width="80" xmlns="http://www.w3.org/2000/svg"><path d="M9 7v10h2v-4h2a2 2 0 0 0 2-2V9a2 2 0 0 0-2-2zm2 2h2v2h-2zm1-7a10 10 0 0 1 10 10a10 10 0 0 1-10 10A10 10 0 0 1 2 12A10 10 0 0 1 12 2" fill="currentColor"/></svg></g></g></g><g transform="translate(-128.6877160894283,-48.825964433910045)" class="architecture-service"><g transform="translate(40, 80)" text-anchor="middle" dominant-baseline="middle" alignment-baseline="middle" dy="1em"><g><rect style="stroke: none" class="background"/><text style="" y="-10.1"><tspan dy="1.1em" y="-0.1em" x="0" class="text-outer-tspan"><tspan font-weight="normal" class="text-inner-tspan" font-style="normal">dlt_data</tspan><tspan font-weight="normal" class="text-inner-tspan" font-style="normal"> load</tspan></tspan><tspan dy="1.1em" y="1em" x="0" class="text-outer-tspan"><tspan font-weight="normal" class="text-inner-tspan" font-style="normal">tool</tspan></tspan></text></g></g><g><g><svg viewBox="0 0 24 24" height="80" width="80" xmlns="http://www.w3.org/2000/svg"><path d="M12 2a10 10 0 0 1 10 10a10 10 0 0 1-10 10A10 10 0 0 1 2 12A10 10 0 0 1 12 2M9 7v10h4a2 2 0 0 0 2-2V9a2 2 0 0 0-2-2zm2 2h2v6h-2z" fill="currentColor"/></svg></g></g></g><g transform="translate(379.413068210457,155.35160554626052)" class="architecture-service"><g transform="translate(40, 80)" text-anchor="middle" dominant-baseline="middle" alignment-baseline="middle" dy="1em"><g><rect style="stroke: none" class="background"/><text style="" y="-10.1"><tspan dy="1.1em" y="-0.1em" x="0" class="text-outer-tspan"><tspan font-weight="normal" class="text-inner-tspan" font-style="normal">looker</tspan><tspan font-weight="normal" class="text-inner-tspan" font-style="normal"> studio</tspan></tspan></text></g></g><g><g><svg viewBox="0 0 256 239" height="80" width="80" xmlns="http://www.w3.org/2000/svg"><path d="M224.022 173.159h-92.959c-22.48 0-35.07 15.736-35.07 32.485c0 15.455 10.679 32.484 35.07 32.484h92.959z" fill="#669DF6"/><ellipse ry="32.485" rx="31.979" fill="#1A73E8" cy="205.587" cx="224.022"/><path d="M128.028 86.551H35.07C12.59 86.551 0 102.288 0 119.036c0 15.456 10.678 32.485 35.07 32.485h92.958z" fill="#669DF6"/><ellipse ry="32.485" rx="31.979" fill="#1A73E8" cy="119.036" cx="128.028"/><path d="M224.022 0h-92.959c-22.48 0-35.07 15.737-35.07 32.485c0 15.455 10.679 32.485 35.07 32.485h92.959z" fill="#669DF6"/><ellipse ry="32.485" rx="31.979" fill="#1A73E8" cy="32.485" cx="224.022"/></svg></g></g></g><g transform="translate(342.8392725386605,-48.825964433910045)" class="architecture-service"><g transform="translate(40, 80)" text-anchor="middle" dominant-baseline="middle" alignment-baseline="middle" dy="1em"><g><rect style="stroke: none" class="background"/><text style="" y="-10.1"><tspan dy="1.1em" y="-0.1em" x="0" class="text-outer-tspan"><tspan font-weight="normal" class="text-inner-tspan" font-style="normal">evidence</tspan><tspan font-weight="normal" class="text-inner-tspan" font-style="normal"> bi</tspan></tspan></text></g></g><g><g><svg viewBox="0 0 24 24" height="80" width="80" xmlns="http://www.w3.org/2000/svg"><path d="M12 2a10 10 0 0 1 10 10a10 10 0 0 1-10 10A10 10 0 0 1 2 12A10 10 0 0 1 12 2M9 7v10h6v-2h-4v-2h4v-2h-4V9h4V7z" fill="currentColor"/></svg></g></g></g><g transform="translate(487.9195634106678,286.7287900586997)" class="architecture-service"><g transform="translate(40, 80)" text-anchor="middle" dominant-baseline="middle" alignment-baseline="middle" dy="1em"><g><rect style="stroke: none" class="background"/><text style="" y="-10.1"><tspan dy="1.1em" y="-0.1em" x="0" class="text-outer-tspan"><tspan font-weight="normal" class="text-inner-tspan" font-style="normal">streamlit</tspan></tspan></text></g></g><g><g><svg viewBox="0 0 256 140" height="80" width="80" xmlns="http://www.w3.org/2000/svg"><path d="M123.888 2.182c1.92-2.91 6.258-2.91 8.25 0l40.753 60.75l43.321 64.519a18 18 0 0 1-1.764 2.581c-.452.539-.88 1.048-1.414 1.571l-.011-.005l.01.005c-.117.112-.23.2-.37.306l-.15.115q-.735.549-1.514 1.038c-.42.263-.767.495-1.269.736c-.5.242-1.302.532-1.784.697c-.483.167-.644.223-1 .302c-.178.035-.356.07-.533.092q-.182.033-.363.057c-.021.007-.05.007-.07.014l-.542.064c-.568.057-1.159.086-1.763.086a697.8 697.8 0 0 1-151.26 0q-.086.002-.172-.008h-.17l-.079-.007h-.077c-.058-.007-.115-.007-.171-.014h-.057c-.079-.007-.15-.007-.227-.014c-.47-.036-1.016-.154-1.408-.241c-.393-.079-.627-.143-.953-.215c-3.87-.917-7.424-3.25-9.053-7.025c-.043-.1-.079-.199-.122-.299l-.006-.021L.225 26.025c-1.067-2.844 1.85-5.69 4.693-4.338c.072 0 .214 0 .286.071l77.902 41.173Zm127.006 19.577c2.852-1.564 5.91 1.137 4.914 4.124v.143l-39.595 101.426l-43.321-64.52l77.931-41.173Z" fill="#FF4B4B"/><path d="M250.894 21.759h-.07l-77.932 41.173l43.321 64.52l39.595-101.426v-.143c.996-2.987-2.062-5.688-4.914-4.124" fill="#7D353B"/><path d="M132.138 2.182c-1.992-2.91-6.33-2.91-8.25 0l-40.782 60.75l44.878 23.723l85.05 44.948c.534-.523.962-1.032 1.414-1.57a18 18 0 0 0 1.764-2.582l-43.32-64.519z" fill="#BD4043"/></svg></g></g></g><g transform="translate(108.88230369865303,-48.825964433910045)" class="architecture-service"><g transform="translate(40, 80)" text-anchor="middle" dominant-baseline="middle" alignment-baseline="middle" dy="1em"><g><rect style="stroke: none" class="background"/><text style="" y="-10.1"><tspan dy="1.1em" y="-0.1em" x="0" class="text-outer-tspan"><tspan font-weight="normal" class="text-inner-tspan" font-style="normal">bigquery</tspan></tspan></text></g></g><g><g><svg viewBox="0 0 24 24" height="80" width="80" xmlns="http://www.w3.org/2000/svg"><path d="M12 3C7.58 3 4 4.79 4 7v10c0 2.21 3.59 4 8 4s8-1.79 8-4V7c0-2.21-3.58-4-8-4m6 14c0 .5-2.13 2-6 2s-6-1.5-6-2v-2.23c1.61.78 3.72 1.23 6 1.23s4.39-.45 6-1.23zm0-4.55c-1.3.95-3.58 1.55-6 1.55s-4.7-.6-6-1.55V9.64c1.47.83 3.61 1.36 6 1.36s4.53-.53 6-1.36zM12 9C8.13 9 6 7.5 6 7s2.13-2 6-2s6 1.5 6 2s-2.13 2-6 2" fill="currentColor"/></svg></g></g></g><g transform="translate(108.88230369865303,-252.7287900586997)" class="architecture-service"><g transform="translate(40, 80)" text-anchor="middle" dominant-baseline="middle" alignment-baseline="middle" dy="1em"><g><rect style="stroke: none" class="background"/><text style="" y="-10.1"><tspan dy="1.1em" y="-0.1em" x="0" class="text-outer-tspan"><tspan font-weight="normal" class="text-inner-tspan" font-style="normal">dbt</tspan></tspan></text></g></g><g><g><svg viewBox="0 0 256 256" height="80" width="80" xmlns="http://www.w3.org/2000/svg"><path d="M245.121 10.647c6.018 5.787 9.953 13.425 10.879 21.758c0 3.472-.926 5.787-3.01 10.185c-2.082 4.397-27.775 48.839-35.413 61.106c-4.398 7.176-6.713 15.74-6.713 24.072c0 8.565 2.315 16.898 6.713 24.073c7.638 12.268 33.33 56.94 35.414 61.338c2.083 4.398 3.009 6.48 3.009 9.953c-.926 8.333-4.63 15.971-10.647 21.526c-5.787 6.018-13.425 9.953-21.527 10.648c-3.471 0-5.786-.926-9.953-3.01s-49.533-27.08-61.8-34.719c-.927-.463-1.852-1.157-3.01-1.62L88.42 180.08c1.388 11.573 6.48 22.683 14.813 30.784c1.62 1.62 3.24 3.01 5.093 4.398c-1.39.694-3.01 1.39-4.398 2.315c-12.268 7.638-56.94 33.33-61.338 35.414c-4.398 2.083-6.481 3.009-10.185 3.009c-8.333-.926-15.971-4.63-21.526-10.647C4.86 239.566.926 231.928 0 223.595c.231-3.472 1.157-6.944 3.01-9.953c2.082-4.398 27.775-49.07 35.413-61.338c4.398-7.176 6.713-15.508 6.713-24.072s-2.315-16.898-6.713-24.073C30.785 91.429 4.861 46.756 3.009 42.358C1.157 39.348.231 35.877 0 32.405c.926-8.333 4.63-15.971 10.647-21.758C16.434 4.63 24.072.926 32.405 0c3.472.231 6.944 1.157 10.185 3.01c3.703 1.62 36.34 20.6 53.7 30.784l3.934 2.315q2.083 1.388 3.472 2.083l1.852 1.157l61.8 36.571c-1.388-13.888-8.563-26.618-19.674-35.182c1.39-.694 3.01-1.39 4.398-2.315c12.268-7.638 56.94-33.562 61.338-35.414C216.42 1.157 219.891.231 223.595 0a35.43 35.43 0 0 1 21.526 10.647m-113.88 133.787l13.193-13.194c1.852-1.851 1.852-4.629 0-6.48l-13.194-13.194c-1.851-1.852-4.629-1.852-6.48 0l-13.194 13.194c-1.852 1.851-1.852 4.629 0 6.48l13.194 13.194c1.62 1.62 4.629 1.62 6.48 0" fill="#FF694A"/></svg></g></g></g><g transform="translate(-354.74867006223013,280.1669681154492)" class="architecture-service"><g transform="translate(40, 80)" text-anchor="middle" dominant-baseline="middle" alignment-baseline="middle" dy="1em"><g><rect style="stroke: none" class="background"/><text style="" y="-10.1"><tspan dy="1.1em" y="-0.1em" x="0" class="text-outer-tspan"><tspan font-weight="normal" class="text-inner-tspan" font-style="normal">ga</tspan></tspan></text></g></g><g><g><svg viewBox="0 0 256 284" height="80" width="80" xmlns="http://www.w3.org/2000/svg"><path d="M256.003 247.933a35.224 35.224 0 0 1-39.376 35.161c-18.044-2.67-31.266-18.371-30.826-36.606V36.845C185.365 18.591 198.62 2.881 216.687.24a35.22 35.22 0 0 1 39.316 35.16z" fill="#F9AB00"/><path d="M35.101 213.193c19.386 0 35.101 15.716 35.101 35.101c0 19.386-15.715 35.101-35.101 35.101S0 267.68 0 248.295s15.715-35.102 35.101-35.102m92.358-106.387c-19.477 1.068-34.59 17.406-34.137 36.908v94.285c0 25.588 11.259 41.122 27.755 44.433a35.16 35.16 0 0 0 42.146-34.56V142.089a35.22 35.22 0 0 0-35.764-35.282" fill="#E37400"/></svg></g></g></g><g transform="translate(-487.9195634106677,171.986591693795)" class="architecture-service"><g transform="translate(40, 80)" text-anchor="middle" dominant-baseline="middle" alignment-baseline="middle" dy="1em"><g><rect style="stroke: none" class="background"/><text style="" y="-10.1"><tspan dy="1.1em" y="-0.1em" x="0" class="text-outer-tspan"><tspan font-weight="normal" class="text-inner-tspan" font-style="normal">search</tspan><tspan font-weight="normal" class="text-inner-tspan" font-style="normal"> console</tspan></tspan></text></g></g><g><g><svg viewBox="0 0 256 228" height="80" width="80" xmlns="http://www.w3.org/2000/svg"><defs><radialGradient gradientTransform="matrix(.59503 .59486 -.44034 .80383 .214 -.073)" fy="28.708%" fx="21.66%" r="82.87%" cy="28.708%" cx="21.66%" id="IconifyId194d247173082532a0"><stop stop-color="#F1F2F2" offset="0%"/><stop stop-color="#E6E7E8" offset="100%"/></radialGradient></defs><path d="M165.979 0H90.021L71.097 19.055v18.924h18.924V19.055h75.958v18.924h18.924V19.055z" fill="#737373"/><path d="M90.021 0v19.055h75.958V0z" fill="#BFBFBF"/><path d="M36.402 37.98L0 74.381v134.177c0 10.513 8.542 18.924 18.924 18.924h218.152c10.513 0 18.924-8.543 18.924-18.924V74.513L219.466 37.98z" fill="url(#IconifyId194d247173082532a0)"/><path d="M28.517 109.076h199.097v118.538H28.517z" fill="#FFF"/><path d="M36.402 37.979L0 74.382v34.694h256V74.513l-36.534-36.534z" fill="#E0E0E0"/><path d="M42.71 213.29H128v14.193H42.71z" fill="#D1D1D1"/><path d="M28.517 86.998a14.695 14.695 0 0 1 14.72-14.719h169.527a14.695 14.695 0 0 1 14.719 14.719v22.078H28.517z" fill="#4285F4"/><path d="M56.903 90.152a7.067 7.067 0 0 1-7.096 7.096a7.067 7.067 0 0 1-7.097-7.096a7.067 7.067 0 0 1 7.097-7.097a7.067 7.067 0 0 1 7.096 7.097m23.656 0a7.067 7.067 0 0 1-7.097 7.096a7.067 7.067 0 0 1-7.096-7.096a7.067 7.067 0 0 1 7.096-7.097a7.067 7.067 0 0 1 7.097 7.097" fill="#E6E6E6"/><path d="m227.483 165.191l-29.832-29.832l-9.988 30.883l-40.739-40.608l-1.183 62.686l15.113 23.655c2.234-.394-11.302 15.508-11.302 15.508h77.93z" fill="#BABABA"/><path d="M208.821 164.008c0-16.821-9.856-31.277-23.918-38.242v39.95l-18.792 10.12l-19.056-10.12v-40.082c-14.061 6.966-23.655 21.553-23.655 38.243c0 16.821 9.725 31.277 23.787 38.242v25.364h37.848v-25.364c13.93-6.834 23.786-21.42 23.786-38.11" fill="#4D4D4D"/><path d="M42.71 123.269h66.366v75.828H42.71z" fill="#D1D1D1"/></svg></g></g></g><g transform="translate(-360.52697523480106,-48.825964433910045)" class="architecture-service"><g transform="translate(40, 80)" text-anchor="middle" dominant-baseline="middle" alignment-baseline="middle" dy="1em"><g><rect style="stroke: none" class="background"/><text style="" y="-10.1"><tspan dy="1.1em" y="-0.1em" x="0" class="text-outer-tspan"><tspan font-weight="normal" class="text-inner-tspan" font-style="normal">github</tspan></tspan></text></g></g><g><g><svg viewBox="0 0 256 250" height="80" width="80" xmlns="http://www.w3.org/2000/svg"><path d="M128.001 0C57.317 0 0 57.307 0 128.001c0 56.554 36.676 104.535 87.535 121.46c6.397 1.185 8.746-2.777 8.746-6.158c0-3.052-.12-13.135-.174-23.83c-35.61 7.742-43.124-15.103-43.124-15.103c-5.823-14.795-14.213-18.73-14.213-18.73c-11.613-7.944.876-7.78.876-7.78c12.853.902 19.621 13.19 19.621 13.19c11.417 19.568 29.945 13.911 37.249 10.64c1.149-8.272 4.466-13.92 8.127-17.116c-28.431-3.236-58.318-14.212-58.318-63.258c0-13.975 5-25.394 13.188-34.358c-1.329-3.224-5.71-16.242 1.24-33.874c0 0 10.749-3.44 35.21 13.121c10.21-2.836 21.16-4.258 32.038-4.307c10.878.049 21.837 1.47 32.066 4.307c24.431-16.56 35.165-13.12 35.165-13.12c6.967 17.63 2.584 30.65 1.255 33.873c8.207 8.964 13.173 20.383 13.173 34.358c0 49.163-29.944 59.988-58.447 63.157c4.591 3.972 8.682 11.762 8.682 23.704c0 17.126-.148 30.91-.148 35.126c0 3.407 2.304 7.398 8.792 6.14C219.37 232.5 256 184.537 256 128.002C256 57.307 198.691 0 128.001 0m-80.06 182.34c-.282.636-1.283.827-2.194.39c-.929-.417-1.45-1.284-1.15-1.922c.276-.655 1.279-.838 2.205-.399c.93.418 1.46 1.293 1.139 1.931m6.296 5.618c-.61.566-1.804.303-2.614-.591c-.837-.892-.994-2.086-.375-2.66c.63-.566 1.787-.301 2.626.591c.838.903 1 2.088.363 2.66m4.32 7.188c-.785.545-2.067.034-2.86-1.104c-.784-1.138-.784-2.503.017-3.05c.795-.547 2.058-.055 2.861 1.075c.782 1.157.782 2.522-.019 3.08m7.304 8.325c-.701.774-2.196.566-3.29-.49c-1.119-1.032-1.43-2.496-.726-3.27c.71-.776 2.213-.558 3.315.49c1.11 1.03 1.45 2.505.701 3.27m9.442 2.81c-.31 1.003-1.75 1.459-3.199 1.033c-1.448-.439-2.395-1.613-2.103-2.626c.301-1.01 1.747-1.484 3.207-1.028c1.446.436 2.396 1.602 2.095 2.622m10.744 1.193c.036 1.055-1.193 1.93-2.715 1.95c-1.53.034-2.769-.82-2.786-1.86c0-1.065 1.202-1.932 2.733-1.958c1.522-.03 2.768.818 2.768 1.868m10.555-.405c.182 1.03-.875 2.088-2.387 2.37c-1.485.271-2.861-.365-3.05-1.386c-.184-1.056.893-2.114 2.376-2.387c1.514-.263 2.868.356 3.061 1.403" fill="#161614"/></svg></g></g></g></g><g class="architecture-groups"><rect class="node-bkg" height="385.90282562478967" width="209" y="-295.2287900586997" x="-193.1877160894283"/><g><g transform="translate(-192.1877160894283, -294.2287900586997)"><g><svg viewBox="0 0 24 24" height="30" width="30" xmlns="http://www.w3.org/2000/svg"><path d="M6.5 20q-2.28 0-3.89-1.57Q1 16.85 1 14.58q0-1.95 1.17-3.48q1.18-1.53 3.08-1.95q.63-2.3 2.5-3.72Q9.63 4 12 4q2.93 0 4.96 2.04Q19 8.07 19 11q1.73.2 2.86 1.5q1.14 1.28 1.14 3q0 1.88-1.31 3.19T18.5 20m-12-2h12q1.05 0 1.77-.73q.73-.72.73-1.77t-.73-1.77Q19.55 13 18.5 13H17v-2q0-2.07-1.46-3.54Q14.08 6 12 6Q9.93 6 8.46 7.46Q7 8.93 7 11h-.5q-1.45 0-2.47 1.03Q3 13.05 3 14.5T4.03 17q1.02 1 2.47 1m5.5-6" fill="currentColor"/></svg></g></g><g transform="translate(-159.1877160894283, -288.2287900586997)" text-anchor="start" dominant-baseline="start" alignment-baseline="middle" dy="1em"><g><rect style="stroke: none" class="background"/><text style="" y="-10.1"><tspan dy="1.1em" y="-0.1em" x="0" class="text-outer-tspan"><tspan font-weight="normal" class="text-inner-tspan" font-style="normal">orchestration</tspan></tspan></text></g></g></g><rect class="node-bkg" height="517.5547544926097" width="311.58029087200725" y="-91.32596443391003" x="298.83927253866057"/><g><g transform="translate(299.83927253866057, -90.32596443391003)"><g><svg viewBox="0 0 24 24" height="30" width="30" xmlns="http://www.w3.org/2000/svg"><path d="m16 11.78l4.24-7.33l1.73 1l-5.23 9.05l-6.51-3.75L5.46 19H22v2H2V3h2v14.54L9.5 8z" fill="currentColor"/></svg></g></g><g transform="translate(332.83927253866057, -84.32596443391003)" text-anchor="start" dominant-baseline="start" alignment-baseline="middle" dy="1em"><g><rect style="stroke: none" class="background"/><text style="" y="-10.1"><tspan dy="1.1em" y="-0.1em" x="0" class="text-outer-tspan"><tspan font-weight="normal" class="text-inner-tspan" font-style="normal">bi</tspan></tspan></text></g></g></g><rect class="node-bkg" height="385.90282562478967" width="165" y="-295.2287900586997" x="66.38230369865303"/><g><g transform="translate(67.38230369865303, -294.2287900586997)"><g><svg viewBox="0 0 256 206" height="30" width="30" xmlns="http://www.w3.org/2000/svg"><path d="m170.252 56.819l22.253-22.253l1.483-9.37C153.437-11.677 88.976-7.496 52.42 33.92C42.267 45.423 34.734 59.764 30.717 74.573l7.97-1.123l44.505-7.34l3.436-3.513c19.797-21.742 53.27-24.667 76.128-6.168z" fill="#EA4335"/><path d="M224.205 73.918a100.25 100.25 0 0 0-30.217-48.722l-31.232 31.232a55.52 55.52 0 0 1 20.379 44.037v5.544c15.35 0 27.797 12.445 27.797 27.796c0 15.352-12.446 27.485-27.797 27.485h-55.671l-5.466 5.934v33.34l5.466 5.231h55.67c39.93.311 72.553-31.494 72.864-71.424a72.3 72.3 0 0 0-31.793-60.453" fill="#4285F4"/><path d="M71.87 205.796h55.593V161.29H71.87a27.3 27.3 0 0 1-11.399-2.498l-7.887 2.42l-22.409 22.253l-1.952 7.574c12.567 9.489 27.9 14.825 43.647 14.757" fill="#34A853"/><path d="M71.87 61.426C31.94 61.663-.237 94.227.001 134.158a72.3 72.3 0 0 0 28.222 56.88l32.248-32.246c-13.99-6.322-20.208-22.786-13.887-36.776s22.786-20.208 36.775-13.888a27.8 27.8 0 0 1 13.887 13.888l32.248-32.248A72.22 72.22 0 0 0 71.87 61.427" fill="#FBBC05"/></svg></g></g><g transform="translate(100.38230369865303, -288.2287900586997)" text-anchor="start" dominant-baseline="start" alignment-baseline="middle" dy="1em"><g><rect style="stroke: none" class="background"/><text style="" y="-10.1"><tspan dy="1.1em" y="-0.1em" x="0" class="text-outer-tspan"><tspan font-weight="normal" class="text-inner-tspan" font-style="normal">gcp</tspan></tspan></text></g></g></g><rect class="node-bkg" height="510.99293254935924" width="313.17089334843763" y="-91.32596443391003" x="-545.4195634106677"/><g><g transform="translate(-544.4195634106677, -90.32596443391003)"><g><svg viewBox="0 0 24 24" height="30" width="30" xmlns="http://www.w3.org/2000/svg"><path d="M12 3C7.58 3 4 4.79 4 7s3.58 4 8 4s8-1.79 8-4s-3.58-4-8-4M4 9v3c0 2.21 3.58 4 8 4s8-1.79 8-4V9c0 2.21-3.58 4-8 4s-8-1.79-8-4m0 5v3c0 2.21 3.58 4 8 4s8-1.79 8-4v-3c0 2.21-3.58 4-8 4s-8-1.79-8-4" fill="currentColor"/></svg></g></g><g transform="translate(-511.4195634106677, -84.32596443391003)" text-anchor="start" dominant-baseline="start" alignment-baseline="middle" dy="1em"><g><rect style="stroke: none" class="background"/><text style="" y="-10.1"><tspan dy="1.1em" y="-0.1em" x="0" class="text-outer-tspan"><tspan font-weight="normal" class="text-inner-tspan" font-style="normal">sources</tspan></tspan></text></g></g></g></g></svg>