<svg id="my-svg" width="100%" xmlns="http://www.w3.org/2000/svg" xmlns:xlink="http://www.w3.org/1999/xlink" style="max-width: 686.211px; background-color: white;" viewBox="-284.60560607910156 -257.10467529296875 686.2112426757812 649.7093505859375" role="graphics-document document" aria-roledescription="architecture"><style>#my-svg{font-family:"trebuchet ms",verdana,arial,sans-serif;font-size:16px;fill:#333;}@keyframes edge-animation-frame{from{stroke-dashoffset:0;}}@keyframes dash{to{stroke-dashoffset:0;}}#my-svg .edge-animation-slow{stroke-dasharray:9,5!important;stroke-dashoffset:900;animation:dash 50s linear infinite;stroke-linecap:round;}#my-svg .edge-animation-fast{stroke-dasharray:9,5!important;stroke-dashoffset:900;animation:dash 20s linear infinite;stroke-linecap:round;}#my-svg .error-icon{fill:#552222;}#my-svg .error-text{fill:#552222;stroke:#552222;}#my-svg .edge-thickness-normal{stroke-width:1px;}#my-svg .edge-thickness-thick{stroke-width:3.5px;}#my-svg .edge-pattern-solid{stroke-dasharray:0;}#my-svg .edge-thickness-invisible{stroke-width:0;fill:none;}#my-svg .edge-pattern-dashed{stroke-dasharray:3;}#my-svg .edge-pattern-dotted{stroke-dasharray:2;}#my-svg .marker{fill:#333333;stroke:#333333;}#my-svg .marker.cross{stroke:#333333;}#my-svg svg{font-family:"trebuchet ms",verdana,arial,sans-serif;font-size:16px;}#my-svg p{margin:0;}#my-svg .edge{stroke-width:3;stroke:#333333;fill:none;}#my-svg .arrow{fill:#333333;}#my-svg .node-bkg{fill:none;stroke:hsl(240, 60%, 86.2745098039%);stroke-width:2px;stroke-dasharray:8;}#my-svg .node-icon-text{display:flex;align-items:center;}#my-svg .node-icon-text&gt;div{color:#fff;margin:1px;height:fit-content;text-align:center;overflow:hidden;display:-webkit-box;-webkit-box-orient:vertical;}#my-svg .node .neo-node{stroke:#9370DB;}#my-svg [data-look="neo"].node rect,#my-svg [data-look="neo"].cluster rect,#my-svg [data-look="neo"].node polygon{stroke:#9370DB;filter:drop-shadow(1px 2px 2px rgba(185, 185, 185, 1));}#my-svg [data-look="neo"].swimlane.cluster rect{filter:none;}#my-svg [data-look="neo"].node path{stroke:#9370DB;stroke-width:1px;}#my-svg [data-look="neo"].node .outer-path{filter:drop-shadow(1px 2px 2px rgba(185, 185, 185, 1));}#my-svg [data-look="neo"].node .neo-line path{stroke:#9370DB;filter:none;}#my-svg [data-look="neo"].node circle{stroke:#9370DB;filter:drop-shadow(1px 2px 2px rgba(185, 185, 185, 1));}#my-svg [data-look="neo"].node circle .state-start{fill:#000000;}#my-svg [data-look="neo"].icon-shape .icon{fill:#9370DB;filter:drop-shadow(1px 2px 2px rgba(185, 185, 185, 1));}#my-svg [data-look="neo"].icon-shape .icon-neo path{stroke:#9370DB;filter:drop-shadow(1px 2px 2px rgba(185, 185, 185, 1));}#my-svg :root{--mermaid-font-family:"trebuchet ms",verdana,arial,sans-serif;}</style><g/><g class="architecture-edges"><g><path d="M -112.10561340630946,-134.6046769315192 L -51.45254741682817,-134.6046769315192 L9.200518572653124,-134.6046769315192" class="edge" id="my-svg-L_cron_worker_0"/><polygon points="13.333333333333334,6.666666666666667 0,13.333333333333334 0,0" transform="translate(-2.13281476068021,-141.27134359818587)" class="arrow"/></g><g><path d="M 89.20051857265314,-134.6046769315192 L 149.90306598948132,-134.6046769315192 L210.6056134063095,-134.6046769315192" class="edge" id="my-svg-L_worker_rainDO_0"/><polygon points="13.333333333333334,6.666666666666667 0,13.333333333333334 0,0" transform="translate(199.27228007297614,-141.27134359818587)" class="arrow"/></g><g><path d="M 49.20051857265314,-94.6046769315192 L 49.20051857265314,-23.163323870802536 L49.20051857265314,88.27802918991412" class="edge" id="my-svg-L_worker_j_0"/></g><g><path d="M 49.200518572653124,88.27802918991414 L -51.45254741682817,88.27802918991414 L-112.10561340630946,88.27802918991414" class="edge" id="my-svg-L_j_yahoo_0"/><polygon points="0,6.666666666666667 13.333333333333334,0 13.333333333333334,13.333333333333334" transform="translate(-114.10561340630946,81.61136252324746)" class="arrow"/></g><g><path d="M 49.20051857265314,88.27802918991414 L 149.90306598948132,88.27802918991414 L210.6056134063095,88.27802918991414" class="edge" id="my-svg-L_j_slack_0"/><polygon points="13.333333333333334,6.666666666666667 0,13.333333333333334 0,0" transform="translate(199.27228007297614,81.61136252324746)" class="arrow"/></g><g><path d="M 49.20051857265314,88.27802918991415 L 49.20051857265314,188.1913530607167 L49.20051857265314,248.10467693151924" class="edge" id="my-svg-L_j_hc_0"/><polygon points="0,0 13.333333333333334,0 6.666666666666667,13.333333333333334" transform="translate(42.533851905986474,236.7713435981859)" class="arrow"/></g></g><g class="architecture-services"><g id="my-svg-service-cron" class="architecture-service" transform="translate(-192.10561340630946,-174.6046769315192)"><g dy="1em" alignment-baseline="middle" dominant-baseline="middle" text-anchor="middle" transform="translate(40, 80)"><g><rect class="background" style="stroke: none"/><text y="-10.1" style=""><tspan class="text-outer-tspan row" x="0" y="-0.1em" dy="1.1em"><tspan font-style="normal" class="text-inner-tspan" font-weight="normal">Cron</tspan><tspan font-style="normal" class="text-inner-tspan" font-weight="normal"> Trigger</tspan></tspan></text></g></g><g><g><svg xmlns="http://www.w3.org/2000/svg" width="80" height="80" viewBox="0 0 24 24"><path fill="currentColor" d="M12 20a8 8 0 0 0 8-8a8 8 0 0 0-8-8a8 8 0 0 0-8 8a8 8 0 0 0 8 8m0-18a10 10 0 0 1 10 10a10 10 0 0 1-10 10C6.47 22 2 17.5 2 12A10 10 0 0 1 12 2m.5 5v5.25l4.5 2.67l-.75 1.23L11 13V7z"/></svg></g></g></g><g id="my-svg-service-worker" class="architecture-service" transform="translate(9.200518572653138,-174.6046769315192)"><g dy="1em" alignment-baseline="middle" dominant-baseline="middle" text-anchor="middle" transform="translate(40, 80)"><g><rect class="background" style="stroke: none"/><text y="-10.1" style=""><tspan class="text-outer-tspan row" x="0" y="-0.1em" dy="1.1em"><tspan font-style="normal" class="text-inner-tspan" font-weight="normal">Worker</tspan></tspan></text></g></g><g><g><svg xmlns="http://www.w3.org/2000/svg" width="80" height="80" viewBox="0 0 256 231"><defs><linearGradient id="IconifyId19f18c0625f66a1760" x1="50%" x2="25.7%" y1="100%" y2="8.7%"><stop offset="0%" stop-color="#eb6f07"/><stop offset="100%" stop-color="#fab743"/></linearGradient><linearGradient id="IconifyId19f18c0625f66a1761" x1="81%" x2="40.5%" y1="83.7%" y2="29.5%"><stop offset="0%" stop-color="#d96504"/><stop offset="100%" stop-color="#d96504" stop-opacity="0"/></linearGradient><linearGradient id="IconifyId19f18c0625f66a1762" x1="42%" x2="84%" y1="8.7%" y2="79.9%"><stop offset="0%" stop-color="#eb6f07"/><stop offset="100%" stop-color="#eb720a" stop-opacity="0"/></linearGradient><linearGradient id="IconifyId19f18c0625f66a1763" x1="50%" x2="25.7%" y1="100%" y2="8.7%"><stop offset="0%" stop-color="#ee6f05"/><stop offset="100%" stop-color="#fab743"/></linearGradient><linearGradient id="IconifyId19f18c0625f66a1764" x1="-33.2%" x2="91.7%" y1="100%" y2="0%"><stop offset="0%" stop-color="#d96504" stop-opacity=".8"/><stop offset="49.8%" stop-color="#d96504" stop-opacity=".2"/><stop offset="100%" stop-color="#d96504" stop-opacity="0"/></linearGradient><linearGradient id="IconifyId19f18c0625f66a1765" x1="50%" x2="25.7%" y1="100%" y2="8.7%"><stop offset="0%" stop-color="#ffa95f"/><stop offset="100%" stop-color="#ffebc8"/></linearGradient><linearGradient id="IconifyId19f18c0625f66a1766" x1="8.1%" x2="96.5%" y1="1.1%" y2="48.8%"><stop offset="0%" stop-color="#fff" stop-opacity=".5"/><stop offset="100%" stop-color="#fff" stop-opacity=".1"/></linearGradient><linearGradient id="IconifyId19f18c0625f66a1767" x1="-13.7%" x2="100%" y1="104.2%" y2="46.2%"><stop offset="0%" stop-color="#fff" stop-opacity=".5"/><stop offset="100%" stop-color="#fff" stop-opacity=".1"/></linearGradient></defs><path fill="url(#IconifyId19f18c0625f66a1760)" d="m65.82 3.324l30.161 54.411l-27.698 49.857a16 16 0 0 0 0 15.573l27.698 49.98l-30.16 54.411a32 32 0 0 1-13.542-12.74L4.27 131.412a32.13 32.13 0 0 1 0-32.007l48.01-83.403a32 32 0 0 1 13.542-12.68"/><path fill="url(#IconifyId19f18c0625f66a1761)" d="M68.283 107.654a16 16 0 0 0 0 15.51l27.698 49.98l-30.16 54.412a32 32 0 0 1-13.542-12.74L4.27 131.412c-3.816-6.586 17.542-14.465 64.014-23.698z" opacity=".7"/><path fill="url(#IconifyId19f18c0625f66a1762)" d="m68.898 8.802l27.083 48.933l-4.493 7.818l-23.882-40.44c-6.894-11.264-17.42-5.416-30.591 17.358l1.97-3.386l13.294-23.082a32 32 0 0 1 13.419-12.68l3.139 5.479z" opacity=".5"/><path fill="url(#IconifyId19f18c0625f66a1763)" d="m203.696 16.003l48.01 83.403c5.725 9.848 5.725 22.159 0 32.007l-48.01 83.402a32.01 32.01 0 0 1-27.698 16.004h-48.01l59.705-107.654a16 16 0 0 0 0-15.511L127.988 0h48.01a32.01 32.01 0 0 1 27.698 16.003"/><path fill="url(#IconifyId19f18c0625f66a1764)" d="m173.536 230.45l-47.395.43l57.367-108.208a16.62 16.62 0 0 0 0-15.634L126.14 0h10.834l60.197 106.546a16.62 16.62 0 0 1-.062 16.496a9617 9617 0 0 0-38.592 67.707c-11.695 20.558-6.648 33.791 15.018 39.7"/><path fill="url(#IconifyId19f18c0625f66a1765)" d="M79.978 230.819c-4.924 0-9.849-1.17-14.157-3.263l59.212-106.792a11.05 11.05 0 0 0 0-10.71L65.821 3.324A32 32 0 0 1 79.978 0h48.01l59.705 107.654a16 16 0 0 1 0 15.51L127.988 230.82z"/><path fill="url(#IconifyId19f18c0625f66a1766)" d="M183.508 110.054L122.448 0h5.54l59.705 107.654a16 16 0 0 1 0 15.51L127.988 230.82h-5.54l61.06-110.055a11.05 11.05 0 0 0 0-10.71" opacity=".6"/><path fill="url(#IconifyId19f18c0625f66a1767)" d="M125.033 110.054L65.821 3.324c1.846-.985 4.062-1.724 6.155-2.34c13.049 23.452 32.315 59.029 57.859 106.67a16 16 0 0 1 0 15.51L71.053 229.589c-2.093-.616-3.201-1.047-5.17-1.97l59.089-106.792a11.05 11.05 0 0 0 0-10.71z" opacity=".6"/></svg></g></g></g><g id="my-svg-service-rainDO" class="architecture-service" transform="translate(210.60561340630946,-174.6046769315192)"><g dy="1em" alignment-baseline="middle" dominant-baseline="middle" text-anchor="middle" transform="translate(40, 80)"><g><rect class="background" style="stroke: none"/><text y="-10.1" style=""><tspan class="text-outer-tspan row" x="0" y="-0.1em" dy="1.1em"><tspan font-style="normal" class="text-inner-tspan" font-weight="normal">RainDetector</tspan></tspan><tspan class="text-outer-tspan row" x="0" y="1em" dy="1.1em"><tspan font-style="normal" class="text-inner-tspan" font-weight="normal">DO</tspan></tspan></text></g></g><g><g><svg xmlns="http://www.w3.org/2000/svg" width="80" height="80" viewBox="0 0 24 24"><path fill="currentColor" d="M12 3C7.58 3 4 4.79 4 7s3.58 4 8 4s8-1.79 8-4s-3.58-4-8-4M4 9v3c0 2.21 3.58 4 8 4s8-1.79 8-4V9c0 2.21-3.58 4-8 4s-8-1.79-8-4m0 5v3c0 2.21 3.58 4 8 4s8-1.79 8-4v-3c0 2.21-3.58 4-8 4s-8-1.79-8-4"/></svg></g></g></g><g id="my-svg-service-yahoo" class="architecture-service" transform="translate(-192.10561340630946,48.278029189914136)"><g dy="1em" alignment-baseline="middle" dominant-baseline="middle" text-anchor="middle" transform="translate(40, 80)"><g><rect class="background" style="stroke: none"/><text y="-10.1" style=""><tspan class="text-outer-tspan row" x="0" y="-0.1em" dy="1.1em"><tspan font-style="normal" class="text-inner-tspan" font-weight="normal">Yahoo</tspan><tspan font-style="normal" class="text-inner-tspan" font-weight="normal"> Weather</tspan></tspan><tspan class="text-outer-tspan row" x="0" y="1em" dy="1.1em"><tspan font-style="normal" class="text-inner-tspan" font-weight="normal">API</tspan></tspan></text></g></g><g><g><svg xmlns="http://www.w3.org/2000/svg" width="80" height="80" viewBox="0 0 512 143"><path fill="#5f01d1" d="M0 34.607h30.475l17.69 45.324l17.95-45.324h29.7l-44.68 107.436H21.306l12.268-28.409zm126.676-1.808c-22.856 0-37.318 20.532-37.318 40.934c0 22.985 15.883 41.193 36.931 41.193c15.754 0 21.694-9.556 21.694-9.556v7.49h26.6V34.607h-26.6v7.102c-.13 0-6.715-8.91-21.307-8.91m5.682 25.18c10.589 0 16.012 8.394 16.012 15.883c0 8.135-5.81 16.142-16.012 16.142c-8.393 0-16.012-6.844-16.012-15.754c0-9.04 6.07-16.27 16.012-16.27m51.265 54.88V0h27.763v41.967s6.585-9.168 20.402-9.168c16.916 0 26.86 12.655 26.86 30.604v49.457h-27.635V70.118c0-6.07-2.84-12.01-9.426-12.01c-6.715 0-10.201 5.94-10.201 12.01v42.742zM306.038 32.8c-26.214 0-41.838 19.886-41.838 41.322c0 24.276 18.853 40.934 41.967 40.934c22.34 0 41.838-15.883 41.838-40.547c0-26.988-20.532-41.709-41.967-41.709m.258 25.31c9.297 0 15.625 7.747 15.625 15.882c0 6.973-5.94 15.625-15.625 15.625c-8.91 0-15.495-7.102-15.495-15.754c0-8.135 5.423-15.754 15.495-15.754m87.938-25.31c-26.214 0-41.839 19.886-41.839 41.322c0 24.276 18.853 40.934 41.968 40.934c22.34 0 41.838-15.883 41.838-40.547c0-26.988-20.403-41.709-41.967-41.709m.258 25.31c9.297 0 15.625 7.747 15.625 15.882c0 6.973-5.94 15.625-15.625 15.625c-8.91 0-15.496-7.102-15.496-15.754c0-8.135 5.553-15.754 15.496-15.754m63.66 19.498c10.202 0 18.466 8.264 18.466 18.466c0 10.2-8.264 18.465-18.465 18.465s-18.466-8.264-18.466-18.465s8.265-18.466 18.466-18.466m24.536-6.715H449.5L478.943 0H512z"/></svg></g></g></g><g id="my-svg-service-slack" class="architecture-service" transform="translate(210.60561340630946,48.278029189914136)"><g dy="1em" alignment-baseline="middle" dominant-baseline="middle" text-anchor="middle" transform="translate(40, 80)"><g><rect class="background" style="stroke: none"/><text y="-10.1" style=""><tspan class="text-outer-tspan row" x="0" y="-0.1em" dy="1.1em"><tspan font-style="normal" class="text-inner-tspan" font-weight="normal">Slack</tspan></tspan></text></g></g><g><g><svg xmlns="http://www.w3.org/2000/svg" width="80" height="80" viewBox="0 0 256 256"><path fill="#e01e5a" d="M53.841 161.32c0 14.832-11.987 26.82-26.819 26.82S.203 176.152.203 161.32c0-14.831 11.987-26.818 26.82-26.818H53.84zm13.41 0c0-14.831 11.987-26.818 26.819-26.818s26.819 11.987 26.819 26.819v67.047c0 14.832-11.987 26.82-26.82 26.82c-14.83 0-26.818-11.988-26.818-26.82z"/><path fill="#36c5f0" d="M94.07 53.638c-14.832 0-26.82-11.987-26.82-26.819S79.239 0 94.07 0s26.819 11.987 26.819 26.819v26.82zm0 13.613c14.832 0 26.819 11.987 26.819 26.819s-11.987 26.819-26.82 26.819H26.82C11.987 120.889 0 108.902 0 94.069c0-14.83 11.987-26.818 26.819-26.818z"/><path fill="#2eb67d" d="M201.55 94.07c0-14.832 11.987-26.82 26.818-26.82s26.82 11.988 26.82 26.82s-11.988 26.819-26.82 26.819H201.55zm-13.41 0c0 14.832-11.988 26.819-26.82 26.819c-14.831 0-26.818-11.987-26.818-26.82V26.82C134.502 11.987 146.489 0 161.32 0s26.819 11.987 26.819 26.819z"/><path fill="#ecb22e" d="M161.32 201.55c14.832 0 26.82 11.987 26.82 26.818s-11.988 26.82-26.82 26.82c-14.831 0-26.818-11.988-26.818-26.82V201.55zm0-13.41c-14.831 0-26.818-11.988-26.818-26.82c0-14.831 11.987-26.818 26.819-26.818h67.25c14.832 0 26.82 11.987 26.82 26.819s-11.988 26.819-26.82 26.819z"/></svg></g></g></g><g id="my-svg-service-hc" class="architecture-service" transform="translate(9.200518572653138,248.10467693151924)"><g dy="1em" alignment-baseline="middle" dominant-baseline="middle" text-anchor="middle" transform="translate(40, 80)"><g><rect class="background" style="stroke: none"/><text y="-10.1" style=""><tspan class="text-outer-tspan row" x="0" y="-0.1em" dy="1.1em"><tspan font-style="normal" class="text-inner-tspan" font-weight="normal">Healthchecks</tspan></tspan></text></g></g><g><g><svg xmlns="http://www.w3.org/2000/svg" width="80" height="80" viewBox="0 0 24 24"><path fill="currentColor" d="M7.5 4A5.5 5.5 0 0 0 2 9.5c0 .5.09 1 .22 1.5H6.3l1.27-3.37c.3-.8 1.48-.88 1.86 0L11.5 13l.59-1.42c.13-.33.48-.58.91-.58h8.78c.13-.5.22-1 .22-1.5A5.5 5.5 0 0 0 16.5 4c-1.86 0-3.5.93-4.5 2.34C11 4.93 9.36 4 7.5 4M3 12.5a1 1 0 0 0-1 1a1 1 0 0 0 1 1h2.44L11 20c1 .9 1 .9 2 0l5.56-5.5H21a1 1 0 0 0 1-1a1 1 0 0 0-1-1h-7.6l-.93 2.3c-.4 1.01-1.55.87-1.92.03L8.5 9.5l-.96 2.33c-.15.38-.49.67-.94.67z"/></svg></g></g></g><g class="architecture-junction" transform="translate(9.200518572653138,48.278029189914136)"><g><rect id="my-svg-node-j" fill-opacity="0" width="80" height="80"/></g></g></g><g class="architecture-groups"><rect id="my-svg-group-cloudflare" x="-244.60561340630943" y="-217.10467693151918" width="606.2112268126189" height="181.99999999999997" class="node-bkg"/><g><g transform="translate(-243.60561340630943, -216.10467693151918)"><g><svg xmlns="http://www.w3.org/2000/svg" width="30" height="30" viewBox="0 0 512 76"><path d="M214.633 47.4h7.505v20.704h13.096v6.643h-20.6zm28.361 13.751v-.08c0-7.856 6.257-14.218 14.61-14.218c8.35 0 14.529 6.295 14.529 14.138v.08c0 7.853-6.257 14.218-14.61 14.218s-14.531-6.287-14.531-14.138zm21.49 0v-.08c0-3.948-2.82-7.384-6.96-7.384c-4.142 0-6.84 3.356-6.84 7.304v.08c0 3.945 2.816 7.384 6.92 7.384c4.1 0 6.88-3.358 6.88-7.304m16.827 1.602V47.41h7.613v15.197c0 3.945 1.965 5.815 4.982 5.815c3.014 0 4.982-1.8 4.982-5.627V47.4h7.61v15.157c0 8.832-4.983 12.69-12.673 12.69s-12.524-3.948-12.524-12.5m36.674-15.34h10.438c9.658 0 15.262 5.625 15.262 13.508v.08c0 7.882-5.685 13.747-15.42 13.747h-10.28V47.4v.01zm10.546 20.621c4.487 0 7.454-2.497 7.454-6.912v-.08c0-4.377-2.974-6.915-7.454-6.915h-3.055v13.907zM354.575 47.4h21.637v6.646h-14.145v4.643h12.79v6.287h-12.79v9.771h-7.492zm32.068 0h7.502v20.704h13.098v6.643h-20.6zm40.19-.193h7.223l11.517 27.535h-8.036l-1.978-4.884H425.12l-1.928 4.884h-7.888l11.517-27.535zm6.572 16.755l-3.016-7.773l-3.055 7.773zm21.828-16.554h12.79c4.134 0 7 1.099 8.807 2.966c1.594 1.559 2.394 3.677 2.394 6.365v.08c0 4.177-2.206 6.953-5.566 8.393l6.455 9.53h-8.659l-5.446-8.282h-3.283v8.282h-7.502V47.4l.01.01zm12.446 13.126c2.55 0 4.021-1.247 4.021-3.238v-.077c0-2.149-1.54-3.238-4.06-3.238h-4.905v6.566h4.952l-.008-.01zM490.044 47.4h21.758v6.445h-14.334v4.136h12.988v5.984h-12.988v4.337H512v6.445h-21.956zM198.212 64.356c-1.05 2.4-3.263 4.099-6.2 4.099c-4.09 0-6.916-3.439-6.916-7.384v-.083c0-3.948 2.745-7.303 6.839-7.303c3.084 0 5.436 1.917 6.435 4.535h7.898c-1.267-6.503-6.92-11.37-14.263-11.37c-8.343 0-14.61 6.365-14.61 14.219v.08c0 7.853 6.177 14.138 14.532 14.138c7.136 0 12.72-4.679 14.193-10.943h-7.918l.01.01z"/><path fill="#fbad41" d="M132.234 32.698c-.552 0-1.097.02-1.641.037a.8.8 0 0 0-.256.06a.92.92 0 0 0-.593.64l-2.334 8.155c-1.006 3.506-.632 6.744 1.06 9.12c1.55 2.2 4.13 3.49 7.263 3.64l12.662.768c.376.02.702.2.9.5c.211.322.258.725.129 1.089a1.61 1.61 0 0 1-1.373 1.069l-13.157.768c-7.147.331-14.838 6.164-17.536 13.277l-.948 2.51a.703.703 0 0 0 .622.958h45.312a1.205 1.205 0 0 0 1.165-.878a33 33 0 0 0 1.204-8.885c0-18.12-14.529-32.808-32.459-32.808"/><path fill="#f6821f" d="m112.457 74.235l.838-2.949c1.009-3.506.635-6.744-1.054-9.12c-1.556-2.2-4.134-3.49-7.268-3.64l-59.395-.768a1.17 1.17 0 0 1-.939-.5a1.24 1.24 0 0 1-.13-1.089a1.61 1.61 0 0 1 1.385-1.069l59.95-.768c7.117-.329 14.807-6.164 17.505-13.277l3.419-9.035a2.3 2.3 0 0 0 .1-1.197C122.973 13.199 107.392 0 88.764 0c-17.172 0-31.741 11.199-36.97 26.767A17.37 17.37 0 0 0 39.47 23.32c-8.232.828-14.858 7.534-15.676 15.857a18 18 0 0 0 .452 6.204C10.792 45.78 0 56.92 0 70.608c0 1.238.088 2.457.266 3.647c.073.577.565 1.01 1.147 1.009h109.688a1.43 1.43 0 0 0 1.356-1.05"/></svg></g></g><g dy="1em" alignment-baseline="middle" dominant-baseline="start" text-anchor="start" transform="translate(-210.60561340630943, -210.10467693151918)"><g><rect class="background" style="stroke: none"/><text y="-10.1" style=""><tspan class="text-outer-tspan row" x="0" y="-0.1em" dy="1.1em"><tspan font-style="normal" class="text-inner-tspan" font-weight="normal">Cloudflare</tspan></tspan></text></g></g></g></g></svg>