<svg aria-roledescription="architecture" role="graphics-document document" viewBox="-684.037109375 -157.33660888671875 1389.07421875 445.8731994628906" style="max-width: 1389.07px; background-color: white;" xmlns:xlink="http://www.w3.org/1999/xlink" xmlns="http://www.w3.org/2000/svg" width="100%" id="my-svg"><style>#my-svg{font-family:"trebuchet ms",verdana,arial,sans-serif;font-size:16px;fill:#333;}@keyframes edge-animation-frame{from{stroke-dashoffset:0;}}@keyframes dash{to{stroke-dashoffset:0;}}#my-svg .edge-animation-slow{stroke-dasharray:9,5!important;stroke-dashoffset:900;animation:dash 50s linear infinite;stroke-linecap:round;}#my-svg .edge-animation-fast{stroke-dasharray:9,5!important;stroke-dashoffset:900;animation:dash 20s linear infinite;stroke-linecap:round;}#my-svg .error-icon{fill:#552222;}#my-svg .error-text{fill:#552222;stroke:#552222;}#my-svg .edge-thickness-normal{stroke-width:1px;}#my-svg .edge-thickness-thick{stroke-width:3.5px;}#my-svg .edge-pattern-solid{stroke-dasharray:0;}#my-svg .edge-thickness-invisible{stroke-width:0;fill:none;}#my-svg .edge-pattern-dashed{stroke-dasharray:3;}#my-svg .edge-pattern-dotted{stroke-dasharray:2;}#my-svg .marker{fill:#333333;stroke:#333333;}#my-svg .marker.cross{stroke:#333333;}#my-svg svg{font-family:"trebuchet ms",verdana,arial,sans-serif;font-size:16px;}#my-svg p{margin:0;}#my-svg .edge{stroke-width:3;stroke:#333333;fill:none;}#my-svg .arrow{fill:#333333;}#my-svg .node-bkg{fill:none;stroke:hsl(240, 60%, 86.2745098039%);stroke-width:2px;stroke-dasharray:8;}#my-svg .node-icon-text{display:flex;align-items:center;}#my-svg .node-icon-text&gt;div{color:#fff;margin:1px;height:fit-content;text-align:center;overflow:hidden;display:-webkit-box;-webkit-box-orient:vertical;}#my-svg :root{--mermaid-font-family:"trebuchet ms",verdana,arial,sans-serif;}</style><g/><g class="architecture-edges"><g><path class="edge" d="M -308.39980768938597,148.83661179586682 L -400.21844356577986,148.83661179586682 L-492.03707944217376,148.83661179586682"/></g><g><path class="edge" d="M -125.79129536058986,-34.836611795866816 L -304.92318658514813,-34.836611795866816 L-484.0550778097064,-34.836611795866816"/></g><g><path class="edge" d="M -85.79129536058986,5.1633882041331844 L -177.0955515249879,57 L-268.39980768938597,108.83661179586682"/></g><g><path class="edge" d="M -125.79129536058986,148.83661179586682 L -177.0955515249879,148.83661179586682 L-228.39980768938597,148.83661179586682"/><polygon class="arrow" transform="translate(-137.1246286939232,142.16994512920016)" points="13.333333333333334,6.666666666666667 0,13.333333333333334 0,0"/></g><g><path class="edge" d="M -85.79129536058986,5.1633882041331844 L -85.79129536058986,57 L-85.79129536058986,108.83661179586682"/></g><g><path class="edge" d="M 542.5370794421738,148.83661179586682 L 482.21661588241204,148.83661179586682 L421.8961523226504,148.83661179586682"/></g><g><path class="edge" d="M 341.8961523226504,148.83661179586682 L 281.5973108055487,148.83661179586682 L221.29846928844708,148.83661179586682"/></g><g><path class="edge" d="M 141.2984692884471,148.83661179586682 L 47.753586963928626,148.83661179586682 L-45.79129536058986,148.83661179586682"/><polygon class="arrow" transform="translate(129.9651359551138,142.16994512920016)" points="13.333333333333334,6.666666666666667 0,13.333333333333334 0,0"/></g></g><g class="architecture-services"><g transform="translate(-564.0550778097064,-74.83661179586682)" class="architecture-service"><g transform="translate(40, 80)" text-anchor="middle" dominant-baseline="middle" alignment-baseline="middle" dy="1em"><g><rect style="stroke: none" class="background"/><text style="" y="-10.1"><tspan dy="1.1em" y="-0.1em" x="0" class="text-outer-tspan"><tspan font-weight="normal" class="text-inner-tspan" font-style="normal">prefect</tspan></tspan></text></g></g><g><g><svg viewBox="0 0 24 24" height="80" width="80" xmlns="http://www.w3.org/2000/svg"><path d="M9 7v10h2v-4h2a2 2 0 0 0 2-2V9a2 2 0 0 0-2-2zm2 2h2v2h-2zm1-7a10 10 0 0 1 10 10a10 10 0 0 1-10 10A10 10 0 0 1 2 12A10 10 0 0 1 12 2" fill="currentColor"/></svg></g></g></g><g transform="translate(-572.0370794421738,108.83661179586682)" class="architecture-service"><g transform="translate(40, 80)" text-anchor="middle" dominant-baseline="middle" alignment-baseline="middle" dy="1em"><g><rect style="stroke: none" class="background"/><text style="" y="-10.1"><tspan dy="1.1em" y="-0.1em" x="0" class="text-outer-tspan"><tspan font-weight="normal" class="text-inner-tspan" font-style="normal">dlt</tspan><tspan font-weight="normal" class="text-inner-tspan" font-style="normal"> data</tspan><tspan font-weight="normal" class="text-inner-tspan" font-style="normal"> load</tspan></tspan><tspan dy="1.1em" y="1em" x="0" class="text-outer-tspan"><tspan font-weight="normal" class="text-inner-tspan" font-style="normal">tool</tspan></tspan></text></g></g><g><g><svg viewBox="0 0 24 24" height="80" width="80" xmlns="http://www.w3.org/2000/svg"><path d="M12 2a10 10 0 0 1 10 10a10 10 0 0 1-10 10A10 10 0 0 1 2 12A10 10 0 0 1 12 2M9 7v10h4a2 2 0 0 0 2-2V9a2 2 0 0 0-2-2zm2 2h2v6h-2z" fill="currentColor"/></svg></g></g></g><g transform="translate(542.5370794421738,108.83661179586682)" class="architecture-service"><g transform="translate(40, 80)" text-anchor="middle" dominant-baseline="middle" alignment-baseline="middle" dy="1em"><g><rect style="stroke: none" class="background"/><text style="" y="-10.1"><tspan dy="1.1em" y="-0.1em" x="0" class="text-outer-tspan"><tspan font-weight="normal" class="text-inner-tspan" font-style="normal">user</tspan></tspan></text></g></g><g><g><svg viewBox="0 0 24 24" height="80" width="80" xmlns="http://www.w3.org/2000/svg"><path d="M12 4a4 4 0 0 1 4 4a4 4 0 0 1-4 4a4 4 0 0 1-4-4a4 4 0 0 1 4-4m0 10c4.42 0 8 1.79 8 4v2H4v-2c0-2.21 3.58-4 8-4" fill="currentColor"/></svg></g></g></g><g transform="translate(341.8961523226504,108.83661179586682)" class="architecture-service"><g transform="translate(40, 80)" text-anchor="middle" dominant-baseline="middle" alignment-baseline="middle" dy="1em"><g><rect style="stroke: none" class="background"/><text style="" y="-10.1"><tspan dy="1.1em" y="-0.1em" x="0" class="text-outer-tspan"><tspan font-weight="normal" class="text-inner-tspan" font-style="normal">pc</tspan></tspan></text></g></g><g><g><svg viewBox="0 0 24 24" height="80" width="80" xmlns="http://www.w3.org/2000/svg"><path d="M4 6h16v10H4m16 2a2 2 0 0 0 2-2V6a2 2 0 0 0-2-2H4c-1.11 0-2 .89-2 2v10a2 2 0 0 0 2 2H0v2h24v-2z" fill="currentColor"/></svg></g></g></g><g transform="translate(141.29846928844708,108.83661179586682)" class="architecture-service"><g transform="translate(40, 80)" text-anchor="middle" dominant-baseline="middle" alignment-baseline="middle" dy="1em"><g><rect style="stroke: none" class="background"/><text style="" y="-10.1"><tspan dy="1.1em" y="-0.1em" x="0" class="text-outer-tspan"><tspan font-weight="normal" class="text-inner-tspan" font-style="normal">vectorize</tspan></tspan><tspan dy="1.1em" y="1em" x="0" class="text-outer-tspan"><tspan font-weight="normal" class="text-inner-tspan" font-style="normal">query</tspan><tspan font-weight="normal" class="text-inner-tspan" font-style="normal"> and</tspan></tspan><tspan dy="1.1em" y="2.1em" x="0" class="text-outer-tspan"><tspan font-weight="normal" class="text-inner-tspan" font-style="normal">search</tspan></tspan></text></g></g><g><g><svg viewBox="0 0 24 24" height="80" width="80" xmlns="http://www.w3.org/2000/svg"><path d="M7 7H5a2 2 0 0 0-2 2v8h2v-4h2v4h2V9a2 2 0 0 0-2-2m0 4H5V9h2m7-2h-4v10h2v-4h2a2 2 0 0 0 2-2V9a2 2 0 0 0-2-2m0 4h-2V9h2m6 0v6h1v2h-4v-2h1V9h-1V7h4v2Z" fill="currentColor"/></svg></g></g></g><g transform="translate(-308.39980768938597,108.83661179586682)" class="architecture-service"><g transform="translate(40, 80)" text-anchor="middle" dominant-baseline="middle" alignment-baseline="middle" dy="1em"><g><rect style="stroke: none" class="background"/><text style="" y="-10.1"><tspan dy="1.1em" y="-0.1em" x="0" class="text-outer-tspan"><tspan font-weight="normal" class="text-inner-tspan" font-style="normal">bigquery</tspan></tspan><tspan dy="1.1em" y="1em" x="0" class="text-outer-tspan"><tspan font-weight="normal" class="text-inner-tspan" font-style="normal">source</tspan></tspan></text></g></g><g><g><svg viewBox="0 0 24 24" height="80" width="80" xmlns="http://www.w3.org/2000/svg"><path d="M12 3C7.58 3 4 4.79 4 7v10c0 2.21 3.59 4 8 4s8-1.79 8-4V7c0-2.21-3.58-4-8-4m6 14c0 .5-2.13 2-6 2s-6-1.5-6-2v-2.23c1.61.78 3.72 1.23 6 1.23s4.39-.45 6-1.23zm0-4.55c-1.3.95-3.58 1.55-6 1.55s-4.7-.6-6-1.55V9.64c1.47.83 3.61 1.36 6 1.36s4.53-.53 6-1.36zM12 9C8.13 9 6 7.5 6 7s2.13-2 6-2s6 1.5 6 2s-2.13 2-6 2" fill="currentColor"/></svg></g></g></g><g transform="translate(-125.79129536058986,108.83661179586682)" class="architecture-service"><g transform="translate(40, 80)" text-anchor="middle" dominant-baseline="middle" alignment-baseline="middle" dy="1em"><g><rect style="stroke: none" class="background"/><text style="" y="-10.1"><tspan dy="1.1em" y="-0.1em" x="0" class="text-outer-tspan"><tspan font-weight="normal" class="text-inner-tspan" font-style="normal">bigquery</tspan></tspan><tspan dy="1.1em" y="1em" x="0" class="text-outer-tspan"><tspan font-weight="normal" class="text-inner-tspan" font-style="normal">embedding</tspan></tspan></text></g></g><g><g><svg viewBox="0 0 24 24" height="80" width="80" xmlns="http://www.w3.org/2000/svg"><path d="M12 3C7.58 3 4 4.79 4 7v10c0 2.21 3.59 4 8 4s8-1.79 8-4V7c0-2.21-3.58-4-8-4m6 14c0 .5-2.13 2-6 2s-6-1.5-6-2v-2.23c1.61.78 3.72 1.23 6 1.23s4.39-.45 6-1.23zm0-4.55c-1.3.95-3.58 1.55-6 1.55s-4.7-.6-6-1.55V9.64c1.47.83 3.61 1.36 6 1.36s4.53-.53 6-1.36zM12 9C8.13 9 6 7.5 6 7s2.13-2 6-2s6 1.5 6 2s-2.13 2-6 2" fill="currentColor"/></svg></g></g></g><g transform="translate(-125.79129536058986,-74.83661179586682)" class="architecture-service"><g transform="translate(40, 80)" text-anchor="middle" dominant-baseline="middle" alignment-baseline="middle" dy="1em"><g><rect style="stroke: none" class="background"/><text style="" y="-10.1"><tspan dy="1.1em" y="-0.1em" x="0" class="text-outer-tspan"><tspan font-weight="normal" class="text-inner-tspan" font-style="normal">dbt</tspan></tspan></text></g></g><g><g><svg viewBox="0 0 256 256" height="80" width="80" xmlns="http://www.w3.org/2000/svg"><path d="M245.121 10.647c6.018 5.787 9.953 13.425 10.879 21.758c0 3.472-.926 5.787-3.01 10.185c-2.082 4.397-27.775 48.839-35.413 61.106c-4.398 7.176-6.713 15.74-6.713 24.072c0 8.565 2.315 16.898 6.713 24.073c7.638 12.268 33.33 56.94 35.414 61.338c2.083 4.398 3.009 6.48 3.009 9.953c-.926 8.333-4.63 15.971-10.647 21.526c-5.787 6.018-13.425 9.953-21.527 10.648c-3.471 0-5.786-.926-9.953-3.01s-49.533-27.08-61.8-34.719c-.927-.463-1.852-1.157-3.01-1.62L88.42 180.08c1.388 11.573 6.48 22.683 14.813 30.784c1.62 1.62 3.24 3.01 5.093 4.398c-1.39.694-3.01 1.39-4.398 2.315c-12.268 7.638-56.94 33.33-61.338 35.414c-4.398 2.083-6.481 3.009-10.185 3.009c-8.333-.926-15.971-4.63-21.526-10.647C4.86 239.566.926 231.928 0 223.595c.231-3.472 1.157-6.944 3.01-9.953c2.082-4.398 27.775-49.07 35.413-61.338c4.398-7.176 6.713-15.508 6.713-24.072s-2.315-16.898-6.713-24.073C30.785 91.429 4.861 46.756 3.009 42.358C1.157 39.348.231 35.877 0 32.405c.926-8.333 4.63-15.971 10.647-21.758C16.434 4.63 24.072.926 32.405 0c3.472.231 6.944 1.157 10.185 3.01c3.703 1.62 36.34 20.6 53.7 30.784l3.934 2.315q2.083 1.388 3.472 2.083l1.852 1.157l61.8 36.571c-1.388-13.888-8.563-26.618-19.674-35.182c1.39-.694 3.01-1.39 4.398-2.315c12.268-7.638 56.94-33.562 61.338-35.414C216.42 1.157 219.891.231 223.595 0a35.43 35.43 0 0 1 21.526 10.647m-113.88 133.787l13.193-13.194c1.852-1.851 1.852-4.629 0-6.48l-13.194-13.194c-1.851-1.852-4.629-1.852-6.48 0l-13.194 13.194c-1.852 1.851-1.852 4.629 0 6.48l13.194 13.194c1.62 1.62 4.629 1.62 6.48 0" fill="#FF694A"/></svg></g></g></g></g><g class="architecture-groups"><rect class="node-bkg" height="365.67322359173363" width="224" y="-117.33661179586682" x="-644.0370794421738"/><g><g transform="translate(-643.0370794421738, -116.33661179586682)"><g><svg viewBox="0 0 24 24" height="30" width="30" xmlns="http://www.w3.org/2000/svg"><path d="M6.5 20q-2.28 0-3.89-1.57Q1 16.85 1 14.58q0-1.95 1.17-3.48q1.18-1.53 3.08-1.95q.63-2.3 2.5-3.72Q9.63 4 12 4q2.93 0 4.96 2.04Q19 8.07 19 11q1.73.2 2.86 1.5q1.14 1.28 1.14 3q0 1.88-1.31 3.19T18.5 20m-12-2h12q1.05 0 1.77-.73q.73-.72.73-1.77t-.73-1.77Q19.55 13 18.5 13H17v-2q0-2.07-1.46-3.54Q14.08 6 12 6Q9.93 6 8.46 7.46Q7 8.93 7 11h-.5q-1.45 0-2.47 1.03Q3 13.05 3 14.5T4.03 17q1.02 1 2.47 1m5.5-6" fill="currentColor"/></svg></g></g><g transform="translate(-610.0370794421738, -110.33661179586682)" text-anchor="start" dominant-baseline="start" alignment-baseline="middle" dy="1em"><g><rect style="stroke: none" class="background"/><text style="" y="-10.1"><tspan dy="1.1em" y="-0.1em" x="0" class="text-outer-tspan"><tspan font-weight="normal" class="text-inner-tspan" font-style="normal">orchestration</tspan></tspan></text></g></g></g><rect class="node-bkg" height="182" width="636.7386101537267" y="66.33661179586682" x="28.29846928844711"/><g><g transform="translate(29.29846928844711, 67.33661179586682)"><g><svg viewBox="0 0 24 24" height="30" width="30" xmlns="http://www.w3.org/2000/svg"><path d="M16.36 14c.08-.66.14-1.32.14-2s-.06-1.34-.14-2h3.38c.16.64.26 1.31.26 2s-.1 1.36-.26 2m-5.15 5.56c.6-1.11 1.06-2.31 1.38-3.56h2.95a8.03 8.03 0 0 1-4.33 3.56M14.34 14H9.66c-.1-.66-.16-1.32-.16-2s.06-1.35.16-2h4.68c.09.65.16 1.32.16 2s-.07 1.34-.16 2M12 19.96c-.83-1.2-1.5-2.53-1.91-3.96h3.82c-.41 1.43-1.08 2.76-1.91 3.96M8 8H5.08A7.92 7.92 0 0 1 9.4 4.44C8.8 5.55 8.35 6.75 8 8m-2.92 8H8c.35 1.25.8 2.45 1.4 3.56A8 8 0 0 1 5.08 16m-.82-2C4.1 13.36 4 12.69 4 12s.1-1.36.26-2h3.38c-.08.66-.14 1.32-.14 2s.06 1.34.14 2M12 4.03c.83 1.2 1.5 2.54 1.91 3.97h-3.82c.41-1.43 1.08-2.77 1.91-3.97M18.92 8h-2.95a15.7 15.7 0 0 0-1.38-3.56c1.84.63 3.37 1.9 4.33 3.56M12 2C6.47 2 2 6.5 2 12a10 10 0 0 0 10 10a10 10 0 0 0 10-10A10 10 0 0 0 12 2" fill="currentColor"/></svg></g></g><g transform="translate(62.29846928844711, 73.33661179586682)" text-anchor="start" dominant-baseline="start" alignment-baseline="middle" dy="1em"><g><rect style="stroke: none" class="background"/><text style="" y="-10.1"><tspan dy="1.1em" y="-0.1em" x="0" class="text-outer-tspan"><tspan font-weight="normal" class="text-inner-tspan" font-style="normal">client</tspan></tspan></text></g></g></g><rect class="node-bkg" height="365.67322359173363" width="418.1085123287961" y="-117.33661179586682" x="-376.89980768938597"/><g><g transform="translate(-375.89980768938597, -116.33661179586682)"><g><svg viewBox="0 0 24 24" height="30" width="30" xmlns="http://www.w3.org/2000/svg"><path d="M6.5 20q-2.28 0-3.89-1.57Q1 16.85 1 14.58q0-1.95 1.17-3.48q1.18-1.53 3.08-1.95q.63-2.3 2.5-3.72Q9.63 4 12 4q2.93 0 4.96 2.04Q19 8.07 19 11q1.73.2 2.86 1.5q1.14 1.28 1.14 3q0 1.88-1.31 3.19T18.5 20m-12-2h12q1.05 0 1.77-.73q.73-.72.73-1.77t-.73-1.77Q19.55 13 18.5 13H17v-2q0-2.07-1.46-3.54Q14.08 6 12 6Q9.93 6 8.46 7.46Q7 8.93 7 11h-.5q-1.45 0-2.47 1.03Q3 13.05 3 14.5T4.03 17q1.02 1 2.47 1m5.5-6" fill="currentColor"/></svg></g></g><g transform="translate(-342.89980768938597, -110.33661179586682)" text-anchor="start" dominant-baseline="start" alignment-baseline="middle" dy="1em"><g><rect style="stroke: none" class="background"/><text style="" y="-10.1"><tspan dy="1.1em" y="-0.1em" x="0" class="text-outer-tspan"><tspan font-weight="normal" class="text-inner-tspan" font-style="normal">gcp</tspan></tspan></text></g></g></g></g></svg>